<svg xmlns="http://www.w3.org/2000/svg" viewBox="0 0 576 512">
  <!-- Font Awesome map-marked-alt inspired icon -->
  <!-- Background circle for favicon -->
  <circle cx="288" cy="256" r="240" fill="#3b82f6" opacity="0.15"/>
  
  <!-- Map (folded paper style) -->
  <path d="M408 120c0 54.6-73.1 151.9-105.5 192-7.7 9.6-22 9.6-29.6 0C241.1 271.9 168 174.6 168 120 168 53.7 221.7 0 288 0s120 53.7 120 120zm8 80.4c3.5-6.9 6.7-13.8 9.6-20.6.5-1.2 1-2.5 1.5-3.7l116-46.4c15.8-6.3 32.9 5.3 32.9 22.3v270.8c0 9.8-6 18.6-15.1 22.3L416 503V200.4zM327.8 211.1c.4-.3.8-.6 1.2-.8l112-48c15.4-6.6 32.3 5.5 32.3 21.6v272.6c0 10.7-9.1 16.9-19.3 13.3L288 432 16 503.3c-10.2 3.6-19.3-2.6-19.3-13.3V192c0-16.1 16.9-28.2 32.3-21.6l112 48c.4.2.8.5 1.2.8 0 0 .1.1.1.1L288 240l39.7-28.8s0-.1.1-.1z" 
        fill="#3b82f6" 
        stroke="#1e40af" 
        stroke-width="4"/>
  
  <!-- Location pin (red marker) -->
  <path d="M288 0C176.5 0 84.5 92 84.5 203.5c0 123.2 203.5 308.5 203.5 308.5S491.5 326.7 491.5 203.5C491.5 92 399.5 0 288 0zm0 272c-37.8 0-68.5-30.7-68.5-68.5S250.2 135 288 135s68.5 30.7 68.5 68.5S325.8 272 288 272z" 
        fill="#ef4444"/>
  <circle cx="288" cy="203.5" r="30" fill="#ffffff"/>
</svg>

